# xmcd CD database file
#
# Track frame offsets:
#	150
#	20772
#	23919
#	43013
#	73127
#	112549
#	147480
#
# Disc length: 2148 seconds
#
# Revision: 0
# Processed by: cddbd v1.5.2PL0 Copyright (c) Steve Scherf et al.
# Submitted via: CDex 1.70beta2
#
DISCID=5d086207
DTITLE=Steel An' Skin - Reggae Is Here Once Again
DYEAR=1979
DGENRE=Jazz
TTITLE0=Reggae Is Here Once Again
TTITLE1=Gadzo Drumming
TTITLE2=Fire In Soweto
TTITLE3=Afro Punk Reggae (Dub)
TTITLE4=Acid Rain
TTITLE5=Hi Life
TTITLE6=John Belly Mama
EXTD=YEAR: 1979
EXTT0=
EXTT1=
EXTT2=
EXTT3=
EXTT4=
EXTT5=
EXTT6=
PLAYORDER=
